  0
SECTION
  2
HEADER
  9
$ANGBASE
 50
0.0
  9
$EXTMAX
 10
100.0
 20
100.0
 30
0.0
  9
$INSBASE
 10
0.0
 20
0.0
 30
0.0
  9
$AUNITS
 70
0
  9
$ACADVER
  1
AC1009
  9
$UNITMODE
 70
0
  9
$EXTMIN
 10
0.0
 20
0.0
 30
0.0
  9
$ANGDIR
 70
0
  0
ENDSEC
  0
SECTION
  2
TABLES
  0
TABLE
  2
LTYPE
 70
19
  0
LTYPE
  2
PHANTOM
 70
0
  3
Phantom ______  __  __  ______  __  __  ______
 72
65
 73
6
 40
2.5
 49
1.25
 49
-0.25
 49
0.25
 49
-0.25
 49
0.25
 49
-0.25
  0
LTYPE
  2
DOT2
 70
0
  3
Dot (.5) . . . . . . . . . . . . . . . . . . . 
 72
65
 73
2
 40
0.1
 49
0.0
 49
-0.1
  0
LTYPE
  2
DIVIDE
 70
0
  3
Divide __ . . __ . . __ . . __ . . __ . . __
 72
65
 73
6
 40
1.6
 49
1.0
 49
-0.2
 49
0.0
 49
-0.2
 49
0.0
 49
-0.2
  0
LTYPE
  2
DIVIDEX2
 70
0
  3
Divide (2x) ____  . .  ____  . .  ____  . .  ____
 72
65
 73
6
 40
2.6
 49
2.0
 49
-0.2
 49
0.0
 49
-0.2
 49
0.0
 49
-0.2
  0
LTYPE
  2
CENTER
 70
0
  3
Center ____ _ ____ _ ____ _ ____ _ ____ _ ____
 72
65
 73
4
 40
2.0
 49
1.25
 49
-0.25
 49
0.25
 49
-0.25
  0
LTYPE
  2
DASHDOT
 70
0
  3
Dash dot __ . __ . __ . __ . __ . __ . __ . __
 72
65
 73
4
 40
1.4
 49
1.0
 49
-0.2
 49
0.0
 49
-0.2
  0
LTYPE
  2
CENTERX2
 70
0
  3
Center (2x) ________  __  ________  __  ________
 72
65
 73
4
 40
3.5
 49
2.5
 49
-0.25
 49
0.5
 49
-0.25
  0
LTYPE
  2
PHANTOMX2
 70
0
  3
Phantom (2x)____________    ____    ____    ____________
 72
65
 73
6
 40
4.25
 49
2.5
 49
-0.25
 49
0.5
 49
-0.25
 49
0.5
 49
-0.25
  0
LTYPE
  2
CONTINUOUS
 70
0
  3
Solid
 72
65
 73
0
 40
0.0
  0
LTYPE
  2
PHANTOM2
 70
0
  3
Phantom (.5x) ___ _ _ ___ _ _ ___ _ _ ___ _ _ ___
 72
65
 73
6
 40
1.25
 49
0.625
 49
-0.125
 49
0.125
 49
-0.125
 49
0.125
 49
-0.125
  0
LTYPE
  2
DASHED
 70
0
  3
Dashed __ __ __ __ __ __ __ __ __ __ __ __ __ _
 72
65
 73
2
 40
0.6
 49
0.5
 49
-0.1
  0
LTYPE
  2
DASHED2
 70
0
  3
Dashed (.5x) _ _ _ _ _ _ _ _ _ _ _ _ _ _
 72
65
 73
2
 40
0.3
 49
0.25
 49
-0.05
  0
LTYPE
  2
DASHDOT2
 70
0
  3
Dash dot (.5x) _ . _ . _ . _ . _ . _ . _ . _
 72
65
 73
4
 40
0.7
 49
0.5
 49
-0.1
 49
0.0
 49
-0.1
  0
LTYPE
  2
DOTX2
 70
0
  3
Dot (2x) .    .    .    .    .    .    .    . 
 72
65
 73
2
 40
0.4
 49
0.0
 49
-0.4
  0
LTYPE
  2
DIVIDE2
 70
0
  3
Divide(.5x) _ . _ . _ . _ . _ . _ . _ . _
 72
65
 73
6
 40
0.8
 49
0.5
 49
-0.1
 49
0.0
 49
-0.1
 49
0.0
 49
-0.1
  0
LTYPE
  2
CENTER2
 70
0
  3
Center (.5x) ____ _ ____ _ ____ _ ____ _ ____
 72
65
 73
4
 40
1.0
 49
0.625
 49
-0.125
 49
0.125
 49
-0.125
  0
LTYPE
  2
DASHDOTX2
 70
0
  3
Dash dot (2x) ____  .  ____  .  ____  .  ____
 72
65
 73
4
 40
2.4
 49
2.0
 49
-0.2
 49
0.0
 49
-0.2
  0
LTYPE
  2
DOT
 70
0
  3
Dot .  .  .  .  .  .  .  .  .  .  .  .  .  .  .  .
 72
65
 73
2
 40
0.2
 49
0.0
 49
-0.2
  0
LTYPE
  2
DASHEDX2
 70
0
  3
Dashed (2x) ____  ____  ____  ____  ____  ____
 72
65
 73
2
 40
1.2
 49
1.0
 49
-0.2
  0
ENDTAB
  0
TABLE
  2
LAYER
 70
8
  0
LAYER
  2
drill
 70
0
 62
4
  6
CONTINUOUS
  0
LAYER
  2
DIMENSIONS
 70
0
 62
1
  6
CONTINUOUS
  0
LAYER
  2
TABLECONTENT
 70
0
 62
1
  6
CONTINUOUS
  0
LAYER
  2
TABLEBACKGROUND
 70
0
 62
1
  6
CONTINUOUS
  0
LAYER
  2
bend
 70
0
 62
2
  6
CONTINUOUS
  0
LAYER
  2
calibrate
 70
0
 62
3
  6
CONTINUOUS
  0
LAYER
  2
VIEWPORTS
 70
0
 62
7
  6
CONTINUOUS
  0
LAYER
  2
TABLEGRID
 70
0
 62
1
  6
CONTINUOUS
  0
ENDTAB
  0
TABLE
  2
STYLE
 70
12
  0
STYLE
  2
TIMES
 70
0
 40
0.0
 41
1.0
 42
1.0
 50
0.0
 71
0
  3
times.ttf
  4

  0
STYLE
  2
ARIAL
 70
0
 40
0.0
 41
1.0
 42
1.0
 50
0.0
 71
0
  3
arial.ttf
  4

  0
STYLE
  2
TIMES_BOLD
 70
0
 40
0.0
 41
1.0
 42
1.0
 50
0.0
 71
0
  3
timesbd.ttf
  4

  0
STYLE
  2
ARIAL_BLACK
 70
0
 40
0.0
 41
1.0
 42
1.0
 50
0.0
 71
0
  3
ariblk.ttf
  4

  0
STYLE
  2
TIMES_ITALIC
 70
0
 40
0.0
 41
1.0
 42
1.0
 50
0.0
 71
0
  3
timesi.ttf
  4

  0
STYLE
  2
ISOCPEUR
 70
0
 40
0.0
 41
1.0
 42
1.0
 50
0.0
 71
0
  3
isocpeur.ttf
  4

  0
STYLE
  2
ARIAL_BOLD
 70
0
 40
0.0
 41
1.0
 42
1.0
 50
0.0
 71
0
  3
arialbd.ttf
  4

  0
STYLE
  2
ARIAL_ITALIC
 70
0
 40
0.0
 41
1.0
 42
1.0
 50
0.0
 71
0
  3
ariali.ttf
  4

  0
STYLE
  2
ARIAL_BOLD_ITALIC
 70
0
 40
0.0
 41
1.0
 42
1.0
 50
0.0
 71
0
  3
arialbi.ttf
  4

  0
STYLE
  2
TIMES_BOLD_ITALIC
 70
0
 40
0.0
 41
1.0
 42
1.0
 50
0.0
 71
0
  3
timesbi.ttf
  4

  0
STYLE
  2
ISOCPEUR_ITALIC
 70
0
 40
0.0
 41
1.0
 42
1.0
 50
0.0
 71
0
  3
isocpeui.ttf
  4

  0
STYLE
  2
STANDARD
 70
0
 40
0.0
 41
1.0
 42
1.0
 50
0.0
 71
0
  3
arial.ttf
  4

  0
ENDTAB
  0
TABLE
  2
VIEW
 70
0
  0
ENDTAB
  0
TABLE
  2
APPID
 70
1
  0
APPID
  2
DXFWRITE
 70
0
  0
ENDTAB
  0
TABLE
  2
VPORT
 70
0
  0
ENDTAB
  0
TABLE
  2
UCS
 70
0
  0
ENDTAB
  0
ENDSEC
  0
SECTION
  2
BLOCKS
  0
ENDSEC
  0
SECTION
  2
ENTITIES
  0
VIEWPORT
  8
VIEWPORTS
 67
1
 10
0.0
 20
0.0
 30
0.0
 40
1.0
 41
1.0
 68
1
 69
1
1001
ACAD
1000
MVIEW
1002
{
1070
16
1010
0.0
1020
0.0
1030
0.0
1010
0.0
1020
0.0
1030
0.0
1040
0.0
1040
1.0
1040
0.0
1040
0.0
1040
50.0
1040
0.0
1040
0.0
1070
0
1070
100
1070
1
1070
3
1070
0
1070
0
1070
0
1070
0
1040
0.0
1040
0.0
1040
0.0
1040
0.1
1040
0.1
1040
0.1
1040
0.1
1070
0
1002
{
1002
}
1002
}
  0
POLYLINE
 62
256
  8
0
 66
1
 10
0.0
 20
0.0
 30
0.0
 70
9
  0
VERTEX
  8
0
 10
0.0
 20
0.0
 30
0.0
  0
VERTEX
  8
0
 10
280.0
 20
0.0
 30
0.0
  0
VERTEX
  8
0
 10
280.0
 20
160.0
 30
0.0
  0
VERTEX
  8
0
 10
0.0
 20
160.0
 30
0.0
  0
SEQEND
  0
POLYLINE
 62
256
  8
0
 66
1
 10
0.0
 20
0.0
 30
0.0
 70
9
  0
VERTEX
  8
0
 10
10.8
 20
68.0
 30
0.0
  0
VERTEX
  8
0
 10
35.8
 20
68.0
 30
0.0
  0
VERTEX
  8
0
 10
35.8
 20
140.0
 30
0.0
  0
VERTEX
  8
0
 10
10.8
 20
140.0
 30
0.0
  0
SEQEND
  0
CIRCLE
  8
0
 10
12.8
 20
70.0
 30
0.0
 40
2.0
  0
LINE
  8
drill
 10
12.8
 20
69.0
 30
0.0
 11
12.8
 21
71.0
 31
0.0
  0
LINE
  8
drill
 10
13.8
 20
70.0
 30
0.0
 11
11.8
 21
70.0
 31
0.0
  0
CIRCLE
  8
0
 10
33.8
 20
138.0
 30
0.0
 40
2.0
  0
LINE
  8
drill
 10
33.8
 20
137.0
 30
0.0
 11
33.8
 21
139.0
 31
0.0
  0
LINE
  8
drill
 10
34.8
 20
138.0
 30
0.0
 11
32.8
 21
138.0
 31
0.0
  0
CIRCLE
  8
0
 10
12.8
 20
138.0
 30
0.0
 40
2.0
  0
LINE
  8
drill
 10
12.8
 20
137.0
 30
0.0
 11
12.8
 21
139.0
 31
0.0
  0
LINE
  8
drill
 10
13.8
 20
138.0
 30
0.0
 11
11.8
 21
138.0
 31
0.0
  0
CIRCLE
  8
0
 10
33.8
 20
70.0
 30
0.0
 40
2.0
  0
LINE
  8
drill
 10
33.8
 20
69.0
 30
0.0
 11
33.8
 21
71.0
 31
0.0
  0
LINE
  8
drill
 10
34.8
 20
70.0
 30
0.0
 11
32.8
 21
70.0
 31
0.0
  0
CIRCLE
  8
0
 10
7.8
 20
66.5
 30
0.0
 40
1.56
  0
LINE
  8
drill
 10
7.8
 20
65.5
 30
0.0
 11
7.8
 21
67.5
 31
0.0
  0
LINE
  8
drill
 10
8.8
 20
66.5
 30
0.0
 11
6.8
 21
66.5
 31
0.0
  0
CIRCLE
  8
0
 10
38.8
 20
66.5
 30
0.0
 40
1.56
  0
LINE
  8
drill
 10
38.8
 20
65.5
 30
0.0
 11
38.8
 21
67.5
 31
0.0
  0
LINE
  8
drill
 10
39.8
 20
66.5
 30
0.0
 11
37.8
 21
66.5
 31
0.0
  0
CIRCLE
  8
0
 10
38.8
 20
141.5
 30
0.0
 40
1.56
  0
LINE
  8
drill
 10
38.8
 20
140.5
 30
0.0
 11
38.8
 21
142.5
 31
0.0
  0
LINE
  8
drill
 10
39.8
 20
141.5
 30
0.0
 11
37.8
 21
141.5
 31
0.0
  0
CIRCLE
  8
0
 10
7.8
 20
141.5
 30
0.0
 40
1.56
  0
LINE
  8
drill
 10
7.8
 20
140.5
 30
0.0
 11
7.8
 21
142.5
 31
0.0
  0
LINE
  8
drill
 10
8.8
 20
141.5
 30
0.0
 11
6.8
 21
141.5
 31
0.0
  0
CIRCLE
  8
0
 10
42.0
 20
30.0
 30
0.0
 40
3.5
  0
LINE
  8
drill
 10
42.0
 20
29.0
 30
0.0
 11
42.0
 21
31.0
 31
0.0
  0
LINE
  8
drill
 10
43.0
 20
30.0
 30
0.0
 11
41.0
 21
30.0
 31
0.0
  0
CIRCLE
  8
0
 10
18.0
 20
30.0
 30
0.0
 40
5.0
  0
LINE
  8
drill
 10
18.0
 20
29.0
 30
0.0
 11
18.0
 21
31.0
 31
0.0
  0
LINE
  8
drill
 10
19.0
 20
30.0
 30
0.0
 11
17.0
 21
30.0
 31
0.0
  0
CIRCLE
  8
0
 10
50.0
 20
100.0
 30
0.0
 40
2.8
  0
LINE
  8
drill
 10
50.0
 20
99.0
 30
0.0
 11
50.0
 21
101.0
 31
0.0
  0
LINE
  8
drill
 10
51.0
 20
100.0
 30
0.0
 11
49.0
 21
100.0
 31
0.0
  0
CIRCLE
  8
0
 10
50.0
 20
111.5
 30
0.0
 40
2.8
  0
LINE
  8
drill
 10
50.0
 20
110.5
 30
0.0
 11
50.0
 21
112.5
 31
0.0
  0
LINE
  8
drill
 10
51.0
 20
111.5
 30
0.0
 11
49.0
 21
111.5
 31
0.0
  0
POLYLINE
 62
256
  8
0
 66
1
 10
0.0
 20
0.0
 30
0.0
 70
9
  0
VERTEX
  8
0
 10
249.15
 20
106.25
 30
0.0
  0
VERTEX
  8
0
 10
258.85
 20
106.25
 30
0.0
  0
VERTEX
  8
0
 10
258.85
 20
123.75
 30
0.0
  0
VERTEX
  8
0
 10
249.15
 20
123.75
 30
0.0
  0
SEQEND
  0
CIRCLE
  8
0
 10
254.0
 20
45.0
 30
0.0
 40
6.35
  0
LINE
  8
drill
 10
254.0
 20
44.0
 30
0.0
 11
254.0
 21
46.0
 31
0.0
  0
LINE
  8
drill
 10
255.0
 20
45.0
 30
0.0
 11
253.0
 21
45.0
 31
0.0
  0
CIRCLE
  8
0
 10
88.25
 20
27.5
 30
0.0
 40
1.75
  0
LINE
  8
drill
 10
88.25
 20
26.5
 30
0.0
 11
88.25
 21
28.5
 31
0.0
  0
LINE
  8
drill
 10
89.25
 20
27.5
 30
0.0
 11
87.25
 21
27.5
 31
0.0
  0
CIRCLE
  8
0
 10
205.75
 20
27.5
 30
0.0
 40
1.75
  0
LINE
  8
drill
 10
205.75
 20
26.5
 30
0.0
 11
205.75
 21
28.5
 31
0.0
  0
LINE
  8
drill
 10
206.75
 20
27.5
 30
0.0
 11
204.75
 21
27.5
 31
0.0
  0
CIRCLE
  8
0
 10
88.25
 20
132.5
 30
0.0
 40
1.75
  0
LINE
  8
drill
 10
88.25
 20
131.5
 30
0.0
 11
88.25
 21
133.5
 31
0.0
  0
LINE
  8
drill
 10
89.25
 20
132.5
 30
0.0
 11
87.25
 21
132.5
 31
0.0
  0
CIRCLE
  8
0
 10
205.75
 20
132.5
 30
0.0
 40
1.75
  0
LINE
  8
drill
 10
205.75
 20
131.5
 30
0.0
 11
205.75
 21
133.5
 31
0.0
  0
LINE
  8
drill
 10
206.75
 20
132.5
 30
0.0
 11
204.75
 21
132.5
 31
0.0
  0
CIRCLE
  8
calibrate
 10
140.0
 20
80.0
 30
0.0
 40
5.0
  0
LINE
  8
calibrate
 10
140.0
 20
78.5
 30
0.0
 11
140.0
 21
81.5
 31
0.0
  0
LINE
  8
calibrate
 10
141.5
 20
80.0
 30
0.0
 11
138.5
 21
80.0
 31
0.0
  0
LINE
  8
bend
 10
60.0
 20
0.0
 30
0.0
 11
60.0
 21
160.0
 31
0.0
  0
LINE
  8
bend
 10
220.0
 20
0.0
 30
0.0
 11
220.0
 21
160.0
 31
0.0
  0
LINE
  8
bend
 10
0.0
 20
150.0
 30
0.0
 11
280.0
 21
150.0
 31
0.0
  0
LINE
  8
bend
 10
0.0
 20
10.0
 30
0.0
 11
280.0
 21
10.0
 31
0.0
  0
ENDSEC
  0
EOF
